<svg height="200px" width="200px" version="1.1" id="Layer_1" xmlns="http://www.w3.org/2000/svg" xmlns:xlink="http://www.w3.org/1999/xlink" viewBox="0 0 511.999 511.999" xml:space="preserve" fill="#000000"><g id="SVGRepo_bgCarrier" stroke-width="0"></g><g id="SVGRepo_tracerCarrier" stroke-linecap="round" stroke-linejoin="round"></g><g id="SVGRepo_iconCarrier"> <g> <g> <path style="fill:#464F5D;" d="M237.705,164.565c-4.727,0-8.731-3.639-9.106-8.439c-0.046-0.549-4.727-55.561-36.599-55.561 c-47.515,0-62.345-80.722-63.872-89.92c-0.832-4.983,2.533-9.691,7.506-10.514c4.965-0.805,9.691,2.533,10.523,7.497 c3.483,20.763,18.514,74.651,45.842,74.651c48.768,0,54.61,69.495,54.83,72.457c0.384,5.029-3.383,9.417-8.411,9.801 C238.181,164.556,237.943,164.565,237.705,164.565"></path> <path style="fill:#464F5D;" d="M274.295,164.57c-0.229,0-0.466-0.009-0.704-0.027c-5.029-0.375-8.805-4.773-8.421-9.81 c0.219-2.953,6.062-72.448,54.83-72.448c27.264,0,42.615-55.278,45.842-74.651c0.832-4.965,5.513-8.338,10.523-7.506 c4.974,0.823,8.338,5.541,7.506,10.523c-1.527,9.198-16.357,89.92-63.872,89.92c-32.009,0-36.553,54.994-36.599,55.552 C283.045,160.922,279.031,164.57,274.295,164.57"></path> <path style="fill:#464F5D;" d="M292.572,182.798c0,20.197-16.375,36.571-36.571,36.571s-36.571-16.375-36.571-36.571 s16.375-36.571,36.571-36.571S292.572,162.601,292.572,182.798"></path> </g> <path style="fill:#DBCB95;" d="M466.286,484.512c-20.233-97.755-127.881-223.214-180.827-280.219 c-6.647,9.097-17.326,15.077-29.458,15.077v146.286c-3.813,114.67,173.714,146.286,173.714,146.286 C473.143,513.467,466.286,484.512,466.286,484.512"></path> <path style="fill:#F9EBB0;" d="M226.54,204.293C173.594,261.298,65.955,386.757,45.713,484.512c0,0-6.857,28.946,36.571,27.429 c0,0,177.527-31.625,173.714-146.286V219.369C243.866,219.369,233.196,213.39,226.54,204.293"></path> <g> <path style="fill:#BFAF80;" d="M127.991,457.141c-1.691,0-3.41-0.466-4.937-1.454c-4.242-2.734-5.477-8.384-2.743-12.635 l82.286-128c2.734-4.242,8.393-5.477,12.635-2.743c4.242,2.734,5.477,8.384,2.743,12.635l-82.286,128 C133.943,455.66,130.999,457.141,127.991,457.141"></path> <path style="fill:#BFAF80;" d="M173.705,383.998c-1.371,0-2.77-0.311-4.078-0.96l-18.286-9.143 c-4.517-2.267-6.354-7.753-4.096-12.27c2.267-4.517,7.753-6.363,12.27-4.096l18.286,9.143c4.517,2.267,6.354,7.753,4.096,12.27 C180.288,382.151,177.061,383.998,173.705,383.998"></path> <path style="fill:#BFAF80;" d="M384.009,457.141c-3.008,0-5.952-1.481-7.698-4.197l-82.286-128 c-2.734-4.251-1.499-9.902,2.743-12.635c4.242-2.734,9.902-1.499,12.635,2.743l82.286,128c2.734,4.251,1.499,9.902-2.743,12.635 C387.42,456.675,385.701,457.141,384.009,457.141"></path> <path style="fill:#BFAF80;" d="M338.295,383.998c-3.355,0-6.583-1.847-8.192-5.056c-2.258-4.517-0.421-10.002,4.096-12.27 l18.286-9.143c4.526-2.267,10.002-0.421,12.27,4.096c2.258,4.517,0.421,10.002-4.096,12.27l-18.286,9.143 C341.065,383.687,339.667,383.998,338.295,383.998"></path> </g> </g> </g></svg>